<?xml version="1.0" encoding="iso-8859-1"?>
<!-- Generator: Adobe Illustrator 19.0.0, SVG Export Plug-In . SVG Version: 6.00 Build 0)  -->
<svg version="1.1" id="Capa_1" xmlns="http://www.w3.org/2000/svg" xmlns:xlink="http://www.w3.org/1999/xlink" x="0px" y="0px"
	 viewBox="0 0 392 392" style="enable-background:new 0 0 392 392;" xml:space="preserve">
<g>
	<g>
		<g>
			<path d="M372,184h-16.199c-3.742-75.995-60.506-138.037-134.072-149.931l6.031-24.125C227.919,9.308,228,8.656,228,8
				c0-4.418-3.582-8-8-8h-48c-0.655,0-1.308,0.081-1.944,0.24c-4.286,1.074-6.89,5.418-5.816,9.704l6.031,24.125
				C96.706,45.963,39.942,108.005,36.199,184H20c-2.121,0-4.154,0.843-5.654,2.342c-3.125,3.124-3.125,8.189-0.002,11.314l48,48
				c1.5,1.5,3.534,2.344,5.656,2.344h256c2.122,0,4.156-0.844,5.656-2.344l48-48c1.499-1.5,2.342-3.534,2.342-5.654
				C379.999,187.583,376.418,184.001,372,184z M186.248,32l-4-16h27.504l-4,16H186.248z M188.116,48.1
				c0.795-0.044,1.586-0.07,2.379-0.1h11.283c73.394,2.862,133.904,61.187,138.006,136H52.216
				C56.237,110.675,114.79,52.121,188.116,48.1z M320.688,232H71.312l-32-32H44h304h4.688L320.688,232z"/>
			<path d="M100.672,106.664l11.92,10.672C133.836,93.617,164.158,80.043,196,80V64C159.609,64.047,124.952,79.557,100.672,106.664z
				"/>
			<path d="M72.624,157.864l15.416,4.272c3.735-13.497,9.986-26.167,18.424-37.344l-12.8-9.6
				C84.029,127.966,76.891,142.443,72.624,157.864z"/>
			<path d="M284,264h-72c-13.255,0-24,10.745-24,24h-36.688l-21.656-21.656c-1.5-1.5-3.534-2.344-5.656-2.344H76
				c-4.418,0-8,3.582-8,8v16c0,2.122,0.844,4.156,2.344,5.656l64,64c1.5,1.5,3.534,2.344,5.656,2.344h64v32h16v-40
				c0-4.418-3.582-8-8-8h-68.688L84,284.688V280h36.688l21.656,21.656c1.5,1.5,3.534,2.344,5.656,2.344h40v8c0,4.418,3.582,8,8,8h40
				v-16h-32v-16c0-4.418,3.582-8,8-8h72c13.255,0,24,10.745,24,24v88h16v-88C323.974,281.92,306.08,264.026,284,264z"/>
		</g>
	</g>
</g>
<g>
</g>
<g>
</g>
<g>
</g>
<g>
</g>
<g>
</g>
<g>
</g>
<g>
</g>
<g>
</g>
<g>
</g>
<g>
</g>
<g>
</g>
<g>
</g>
<g>
</g>
<g>
</g>
<g>
</g>
</svg>
