<svg height="480pt" viewBox="0 -24 480.00004 480" width="480pt" xmlns="http://www.w3.org/2000/svg"><path d="m24 64.023438h16v96h-16zm0 0"/><path d="m48 64.023438h16v96h-16zm0 0"/><path d="m471.351562 56.023438c-24.0625.105468-45.375 15.558593-52.953124 38.398437-36.253907-53.328125-94.472657-87.636719-158.6875-93.523437-64.21875-5.882813-127.699219 17.273437-173.046876 63.125h-14.664062v92.6875l-13.65625 13.65625c-1.664062 1.660156-2.511719 3.972656-2.320312 6.320312l13.121093 157.34375c.554688 6.6875-1.710937 13.304688-6.257812 18.242188-4.546875 4.941406-10.949219 7.75-17.664063 7.75h-2.445312c-6.714844 0-13.117188-2.808594-17.664063-7.75-4.546875-4.9375-6.8125-11.554688-6.257812-18.242188l13.144531-157.34375c.195312-2.347656-.65625-4.660156-2.320312-6.320312l-13.679688-13.65625v-92.6875h-16v96c0 2.121093.84375 4.15625 2.34375 5.65625l13.375 13.375-12.796875 153.648437c-.929687 11.144531 2.851563 22.171875 10.421875 30.402344 7.574219 8.230469 18.246094 12.914062 29.433594 12.917969h2.445312c11.183594-.015626 21.855469-4.695313 29.441406-12.914063 1.191407-1.390625 2.285157-2.863281 3.273438-4.40625 41.203125 46.867187 100.675781 73.605469 163.078125 73.316406 62.402344-.285156 121.628906-27.570312 162.398437-74.8125 10.125 15.421875 29.171876 22.363281 46.84375 17.070313 17.671876-5.296875 29.765626-21.566406 29.742188-40.015625v-270.238281c-.304688-4.539063-4.101562-8.050782-8.648438-8zm-231.351562 360c-60.351562.164062-117.5-27.144532-155.289062-74.203126.476562-3.011718.605468-6.074218.378906-9.117187l-12.800782-153.648437 13.375-13.375c1.496094-1.503907 2.335938-3.539063 2.335938-5.65625v-73.875c42.195312-49.457032 105.8125-75.292969 170.542969-69.261719 64.726562 6.03125 122.476562 43.175781 154.808593 99.574219l-17.839843 89.203124c-2.640625 13.113282 1.46875 26.679688 10.945312 36.125l1.117188 1.121094-10.773438 86.175782c-.433593 3.578124-.394531 7.195312.109375 10.761718-37.722656 48.273438-95.644531 76.394532-156.910156 76.175782zm224-81.761719c0 9.585937-5.320312 18.382812-13.816406 22.828125-8.492188 4.445312-18.753906 3.804687-26.628906-1.660156-7.878907-5.46875-12.066407-14.855469-10.875-24.367188l10.382812-83.039062h40.9375zm0-102.238281h-44.6875l-1.542969-1.546876c-5.671875-5.667968-8.132812-13.792968-6.570312-21.65625l20.929687-104.636718c3.234375-16 15.835938-28.441406 31.871094-31.480469zm0 0"/><path d="m154.347656 322.363281 32-32 11.316406 11.3125-32.003906 32zm0 0"/><path d="m138.34375 298.363281 32-32 11.3125 11.3125-32 32zm0 0"/><path d="m256 168.023438c22.089844 0 40-17.910157 40-40 0-22.09375-17.910156-40-40-40s-40 17.90625-40 40c.027344 22.078124 17.917969 39.972656 40 40zm0-64c13.253906 0 24 10.742187 24 24 0 13.253906-10.746094 24-24 24s-24-10.746094-24-24c0-13.257813 10.746094-24 24-24zm0 0"/><path d="m342.902344 104.40625c-3-10.488281-13.933594-14.855469-23.621094-18.695312-4.988281-1.566407-9.667969-3.980469-13.839844-7.128907-3.148437-4.175781-5.5625-8.855469-7.136718-13.839843-3.871094-9.785157-8.265626-20.878907-19-23.742188-11.039063-2.945312-20.550782 4.636719-28.9375 11.335938-3.667969 3.394531-7.886719 6.144531-12.472657 8.132812-4.75.492188-9.546875.1875-14.199219-.894531-10.785156-1.703125-23.007812-3.640625-31.390624 4.75-2.554688 2.589843-4.359376 5.820312-5.226563 9.355469-38.101563 14.039062-68.964844 42.792968-85.671875 79.804687-16.703125 37.011719-17.84375 79.179687-3.167969 117.042969-6.28125 24.542968.851563 50.578125 18.765625 68.492187 17.914063 17.914063 43.949219 25.046875 68.492188 18.761719 16.574218 6.40625 34.152344 9.832031 51.917968 10.121094.6875 2.84375 1.761719 5.574218 3.203126 8.121094 8.835937 15.304687 28.40625 20.546874 43.710937 11.710937l55.425781-32c13.523438-7.867187 19.378906-24.359375 13.839844-38.992187 55.15625-61.765626 50.410156-156.398438-10.648438-212.335938zm-139.285156-28.800781c1.753906-1.226563 3.894531-1.773438 6.023437-1.535157 3.878906.144532 7.742187.570313 11.558594 1.273438 6.824219 1.582031 13.902343 1.773438 20.800781.558594 6.800781-2.425782 13.046875-6.191406 18.359375-11.082032 5.152344-4.125 11.480469-9.261718 14.816406-8.382812 2.953125.800781 6.015625 8.527344 8.257813 14.175781 2.234375 7.074219 5.871094 13.625 10.695312 19.265625 5.636719 4.820313 12.191406 8.457032 19.261719 10.695313 5.648437 2.238281 13.394531 5.304687 14.175781 8.265625.875 3.238281-4.261718 9.652344-8.382812 14.8125-4.890625 5.304687-8.664063 11.535156-11.085938 18.328125-1.226562 6.902343-1.039062 13.976562.550782 20.800781 1.046874 6.664062 2.359374 14.960938-.265626 17.601562-2.621093 2.640626-10.917968 1.3125-17.597656.261719-6.824218-1.585937-13.902344-1.773437-20.800781-.558593-6.800781 2.441406-13.042969 6.226562-18.34375 11.136718-5.152344 4.113282-11.519531 9.238282-14.816406 8.375-2.953125-.800781-6.015625-8.527344-8.257813-14.175781-2.238281-7.074219-5.875-13.625-10.695312-19.265625-5.640625-4.816406-12.191406-8.453125-19.261719-10.695312-5.648437-2.238282-13.394531-5.304688-14.175781-8.261719-.867188-3.242188 4.253906-9.65625 8.375-14.808594 4.894531-5.304687 8.671875-11.542969 11.101562-18.335937 1.226563-6.898438 1.035156-13.976563-.558594-20.800782-1.046874-6.695312-2.359374-14.992187.265626-17.617187zm-91.617188 212.417969c0-30.929688 25.070312-56 56-56s56 25.070312 56 56c0 30.925781-25.070312 56-56 56-30.914062-.035157-55.964844-25.089844-56-56zm219.710938 53.855468-55.421876 32c-4.953124 2.902344-11.082031 2.929688-16.0625.070313-4.976562-2.859375-8.042968-8.167969-8.03125-13.910157.011719-5.742187 3.101563-11.035156 8.09375-13.871093l55.421876-32c7.648437-4.347657 17.367187-1.710938 21.765624 5.90625 4.398438 7.617187 1.824219 17.355469-5.765624 21.804687zm20.289062-77.855468h-64c-8.835938 0-16-7.164063-16-16 0-8.835938 7.164062-16 16-16h64c8.835938 0 16 7.164062 16 16 0 8.835937-7.164062 16-16 16zm23.503906-37.546876c-6.011718-6.636718-14.546875-10.433593-23.503906-10.453124h-64c-17.671875 0-32 14.324218-32 32 0 17.671874 14.328125 32 32 32h64c2.953125-.042969 5.886719-.5 8.710938-1.359376-4.644532 8.832032-10.246094 17.125-16.710938 24.726563-10.273438-8.472656-24.71875-9.699219-36.273438-3.082031l-55.421874 32c-7.390626 4.265625-12.761719 11.316406-14.921876 19.570312-9.976562-.230468-19.902343-1.542968-29.597656-3.914062 24.394532-16.097656 36.632813-45.347656 30.976563-74.023438-5.652344-28.675781-28.082031-51.085937-56.761719-56.71875-28.679688-5.632812-57.921875 6.632813-74 31.039063-16.175781-64.71875 17.292969-131.558594 78.800781-157.382813.222657 1.597656.472657 3.253906.71875 4.839844 1.085938 4.648438 1.390625 9.449219.894531 14.199219-1.972656 4.597656-4.714843 8.824219-8.101562 12.503906-6.695312 8.382813-14.289062 17.886719-11.335938 28.9375 2.863282 10.726563 13.953126 15.125 23.742188 19 4.988281 1.574219 9.667969 3.988281 13.839844 7.132813 3.148437 4.175781 5.5625 8.855468 7.136718 13.84375 3.871094 9.789062 8.273438 20.878906 19 23.742187 1.613282.4375 3.28125.65625 4.953126.65625 9.105468-1.238281 17.542968-5.460937 24-12 3.671874-3.394531 7.890624-6.144531 12.480468-8.136719 4.75-.492187 9.546875-.191406 14.199219.894532 10.769531 1.707031 23 3.640624 31.390625-4.75 8.394531-8.390626 6.464844-20.609376 4.753906-31.390626-1.085937-4.652343-1.390625-9.449218-.90625-14.203124 1.992188-4.597657 4.734375-8.832032 8.121094-12.527344 2.75-3.296875 5.277344-6.773438 7.578125-10.398438 23.574219 25.152344 36.707031 58.324219 36.734375 92.800782 0 3.511718-.230469 6.984374-.496094 10.453124zm0 0"/></svg>