<svg height="480pt" viewBox="-80 0 480 480" width="480pt" xmlns="http://www.w3.org/2000/svg"><path d="m312 0h-304c-4.417969 0-8 3.582031-8 8v464c0 4.417969 3.582031 8 8 8h304c4.417969 0 8-3.582031 8-8v-464c0-4.417969-3.582031-8-8-8zm-40 464h-224v-416h224zm32 0h-16v-424c0-4.417969-3.582031-8-8-8h-240c-4.417969 0-8 3.582031-8 8v424h-16v-448h288zm0 0"/><path d="m72 288h32c4.417969 0 8-3.582031 8-8v-16h24v-16h-24v-48c0-4.417969-3.582031-8-8-8h-32c-4.417969 0-8 3.582031-8 8v80c0 4.417969 3.582031 8 8 8zm8-80h16v40h-8v16h8v8h-16zm0 0"/><path d="m112 144h96c4.417969 0 8-3.582031 8-8v-32c0-4.417969-3.582031-8-8-8h-96c-4.417969 0-8 3.582031-8 8v32c0 4.417969 3.582031 8 8 8zm8-32h80v16h-80zm0 0"/></svg>