<?xml version="1.0"?>
<svg xmlns="http://www.w3.org/2000/svg" xmlns:xlink="http://www.w3.org/1999/xlink" version="1.1" id="Capa_1" x="0px" y="0px" viewBox="0 0 512 512" style="enable-background:new 0 0 512 512;" xml:space="preserve" width="512px" height="512px"><g><g>
	<g>
		<path d="M398.992,0H113.008c-4.839,0-8.762,3.923-8.762,8.762v66.705c0,4.839,3.923,8.762,8.762,8.762s8.762-3.923,8.762-8.762    V17.524h268.46v476.951H121.77V104.373c0-4.839-3.923-8.762-8.762-8.762s-8.762,3.923-8.762,8.762v398.865    c0,4.839,3.923,8.762,8.762,8.762h285.984c4.84,0,8.762-3.923,8.762-8.762V8.762C407.754,3.923,403.831,0,398.992,0z" data-original="#000000" class="active-path" data-old_color="#000000" fill="#FCFBFB"/>
	</g>
</g><g>
	<g>
		<path d="M236.901,36.898h-86.992c-4.839,0-8.762,3.923-8.762,8.762v177.652c0,4.839,3.923,8.762,8.762,8.762h86.992    c4.839,0,8.762-3.923,8.762-8.762V45.66C245.663,40.821,241.74,36.898,236.901,36.898z M228.139,214.55h-69.468V54.423h69.468    V214.55z" data-original="#000000" class="active-path" data-old_color="#000000" fill="#FCFBFB"/>
	</g>
</g><g>
	<g>
		<path d="M362.088,36.898h-47.04c-4.84,0-8.762,3.923-8.762,8.762c0,4.839,3.922,8.762,8.762,8.762h38.278V214.55h-69.469V54.423    h4.13c4.84,0,8.762-3.923,8.762-8.762c0-4.839-3.922-8.762-8.762-8.762h-12.892c-4.84,0-8.762,3.923-8.762,8.762v177.652    c0,4.839,3.922,8.762,8.762,8.762h86.993c4.84,0,8.762-3.923,8.762-8.762V45.66C370.85,40.821,366.928,36.898,362.088,36.898z" data-original="#000000" class="active-path" data-old_color="#000000" fill="#FCFBFB"/>
	</g>
</g><g>
	<g>
		<path d="M236.9,401.595c4.839,0,8.762-3.923,8.762-8.762V288.692c0-4.839-3.923-8.762-8.762-8.762h-86.992    c-4.839,0-8.762,3.923-8.762,8.762v177.639c0,4.839,3.923,8.762,8.762,8.762H236.9c4.839,0,8.762-3.923,8.762-8.762V420.51    c0-4.839-3.923-8.762-8.762-8.762c-4.839,0-8.762,3.923-8.762,8.762v37.059h-69.468V297.455h69.468v95.378    C228.137,397.672,232.06,401.595,236.9,401.595z" data-original="#000000" class="active-path" data-old_color="#000000" fill="#FCFBFB"/>
	</g>
</g><g>
	<g>
		<path d="M362.088,279.93h-86.994c-4.84,0-8.762,3.923-8.762,8.762v177.639h0c0,4.839,3.922,8.762,8.762,8.762h86.993    c4.84,0,8.762-3.923,8.762-8.762V288.692C370.85,283.853,366.928,279.93,362.088,279.93z M353.326,457.569h-69.469V297.455h0    h69.469V457.569z" data-original="#000000" class="active-path" data-old_color="#000000" fill="#FCFBFB"/>
	</g>
</g><g>
	<g>
		<path d="M190.808,251.835H167.48c-0.662-4.182-4.284-7.38-8.654-7.38c-4.839,0-8.762,3.923-8.762,8.762    c0,8.901,7.241,16.142,16.142,16.142h24.602c4.839,0,8.762-3.923,8.762-8.762S195.647,251.835,190.808,251.835z" data-original="#000000" class="active-path" data-old_color="#000000" fill="#FCFBFB"/>
	</g>
</g></g> </svg>
