<svg height="423pt" viewBox="-27 0 423 423.25333" width="423pt" xmlns="http://www.w3.org/2000/svg"><path d="m184.449219 395.945312c-101.796875 0-184.324219 6.117188-184.324219 13.65625 0 7.542969 82.527344 13.652344 184.324219 13.652344 101.800781 0 184.316406-6.113281 184.316406-13.652344 0-7.539062-82.515625-13.65625-184.316406-13.65625" fill="#eeeef0"/><path d="m41.089844 150.1875v197.078125c0 34.425781 27.90625 62.335937 62.332031 62.335937h20.019531c14.839844 0 26.871094-12.035156 26.871094-26.875v-20.914062h68.265625v20.914062c0 14.839844 12.035156 26.875 26.875 26.875h20.019531c34.425782 0 62.332032-27.910156 62.332032-62.335937v-197.078125c0-79.175781-64.1875-143.359375-143.359376-143.359375-79.175781 0-143.355468 64.183594-143.355468 143.359375zm0 0" fill="#999"/><g fill="#54596e"><path d="m41.089844 150.1875h-6.828125v197.078125c.003906 38.199219 30.960937 69.15625 69.160156 69.160156h20.019531c18.613282-.003906 33.695313-15.085937 33.699219-33.699219v-14.089843h54.613281v14.089843c.003906 18.613282 15.085938 33.695313 33.699219 33.699219h20.019531c38.199219-.003906 69.15625-30.964843 69.160156-69.160156v-197.078125c-.003906-82.949219-67.242187-150.18359375-150.1875-150.1875-82.949218.00390625-150.183593 67.238281-150.1875 150.1875h13.65625c.003907-37.726562 15.273438-71.816406 39.992188-96.546875 24.730469-24.714844 58.820312-39.984375 96.542969-39.988281 37.722656.003906 71.8125 15.269531 96.542969 39.988281 24.71875 24.730469 39.984374 58.820313 39.988281 96.546875v197.078125c-.003907 15.347656-6.199219 29.183594-16.257813 39.25-10.066406 10.054687-23.898437 16.253906-39.25 16.257813h-20.019531c-11.066406-.023438-20.023437-8.980469-20.042969-20.046876v-20.914062c0-1.796875-.730468-3.554688-2-4.828125-1.273437-1.269531-3.03125-1.996094-4.828125-1.996094h-68.265625c-1.796875 0-3.554687.726563-4.828125 1.996094-1.269531 1.273437-2 3.03125-2 4.828125v20.914062c-.019531 11.066407-8.980469 20.023438-20.042969 20.046876h-20.019531c-15.351562-.003907-29.183593-6.203126-39.25-16.257813-10.058593-10.066406-16.253906-23.902344-16.257812-39.25v-197.078125zm0 0"/><path d="m129.835938 368.640625h109.226562c3.769531 0 6.824219-3.058594 6.824219-6.828125s-3.054688-6.824219-6.824219-6.824219h-109.226562c-3.769532 0-6.828126 3.054688-6.828126 6.824219s3.058594 6.828125 6.828126 6.828125"/><path d="m116.183594 143.359375c0 7.542969-6.113282 13.652344-13.65625 13.652344-7.539063 0-13.652344-6.109375-13.652344-13.652344 0-7.539063 6.113281-13.652344 13.652344-13.652344 7.542968 0 13.65625 6.113281 13.65625 13.652344zm0 0"/><path d="m280.023438 143.359375c0 7.542969-6.113282 13.652344-13.65625 13.652344-7.539063 0-13.652344-6.109375-13.652344-13.652344 0-7.539063 6.113281-13.652344 13.652344-13.652344 7.542968 0 13.65625 6.113281 13.65625 13.652344zm0 0"/></g><path d="m41.089844 273.066406v40.960938c0 15.082031 12.226562 27.304687 27.304687 27.304687 15.082031 0 27.308594-12.222656 27.308594-27.304687v-40.960938" fill="#aaa"/><path d="m34.261719 273.066406v40.960938c.003906 18.851562 15.28125 34.128906 34.132812 34.132812 18.851563-.003906 34.128907-15.28125 34.132813-34.132812v-40.960938c0-3.769531-3.054688-6.828125-6.824219-6.828125s-6.828125 3.058594-6.828125 6.828125v40.960938c-.019531 11.308594-9.171875 20.457031-20.480469 20.480468-11.304687-.023437-20.460937-9.171874-20.480469-20.480468v-40.960938c0-3.769531-3.054687-6.828125-6.824218-6.828125-3.773438 0-6.828125 3.058594-6.828125 6.828125zm0 0" fill="#54596e"/><path d="m327.808594 232.105469v40.960937c0 15.082032-12.226563 27.308594-27.308594 27.308594-15.078125 0-27.304688-12.226562-27.304688-27.308594v-40.960937" fill="#aaa"/><path d="m320.980469 232.105469v40.960937c-.019531 11.308594-9.171875 20.457032-20.480469 20.480469-11.304688-.023437-20.457031-9.171875-20.476562-20.480469v-40.960937c0-3.769531-3.058594-6.824219-6.828126-6.824219-3.769531 0-6.828124 3.054688-6.828124 6.824219v40.960937c.003906 18.855469 15.28125 34.128906 34.132812 34.132813 18.855469-.003907 34.128906-15.277344 34.136719-34.132813v-40.960937c0-3.769531-3.058594-6.824219-6.828125-6.824219-3.769532 0-6.828125 3.054688-6.828125 6.824219zm0 0" fill="#54596e"/><path d="m232.429688 205.402344c-9.261719-8.492188-27.273438-14.253906-47.980469-14.253906-20.0625 0-37.59375 5.40625-47.09375 13.464843" fill="#999"/><path d="m237.042969 200.371094c-5.699219-5.199219-13.363281-9.074219-22.332031-11.816406-8.96875-2.714844-19.273438-4.230469-30.261719-4.234376-10.644531.003907-20.652344 1.425782-29.421875 3.988282-8.769532 2.574218-16.328125 6.234375-22.089844 11.101562-2.875 2.4375-3.230469 6.746094-.789062 9.621094 2.4375 2.878906 6.746093 3.230469 9.621093.792969 3.734375-3.195313 9.699219-6.269531 17.082031-8.410157 7.386719-2.164062 16.179688-3.441406 25.59375-3.441406 9.71875 0 18.773438 1.363282 26.304688 3.652344 7.53125 2.265625 13.503906 5.511719 17.0625 8.808594 2.777344 2.546875 7.097656 2.363281 9.644531-.417969 2.546875-2.777344 2.363281-7.09375-.414062-9.644531zm0 0" fill="#54596e"/></svg>