<?xml version="1.0"?>
<svg xmlns="http://www.w3.org/2000/svg" height="512px" viewBox="-104 0 480 480.0001" width="512px" class=""><g><path d="m264 336v136h-48v-136l-10.800781-13.839844 2.800781-2.160156-16-16 24-16-18.558594-43.359375c39.683594 12.75 66.585938 49.675781 66.558594 91.359375zm0 0" fill="#898890" data-original="#898890"/><path d="m208 120c8.824219.027344 15.972656 7.175781 16 16-.066406 8.808594-7.191406 15.933594-16 16h-8v-32zm0 0" fill="#f1cfa2" data-original="#F1CFA2"/><path d="m216 336v136h-80v-96l69.199219-53.839844zm0 0" fill="#898890" data-original="#898890"/><path d="m197.441406 244.640625 18.558594 43.359375-24 16 16 16-2.800781 2.160156-69.199219 53.839844 32-72 16-40-16-24c9.996094-.027344 19.933594 1.539062 29.441406 4.640625zm0 0" fill="#57565c" data-original="#57565C" class="active-path" style="fill:#FF0059" data-old_color="#FF0014"/><path d="m200 152v24c0 17.671875-14.328125 32-32 32h-64c-17.671875 0-32-14.328125-32-32v-80c.007812-30.160156 21.070312-56.226562 50.558594-62.558594l5.441406 54.558594h16l5.441406-54.558594c29.523438 6.277344 50.613282 32.375 50.558594 62.558594zm0 0" fill="#ffdaaa" data-original="#FFDAAA" class=""/><path d="m168 240 16 24-16 40-32-24zm0 0" fill="#d1d3d4" data-original="#D1D3D4"/><path d="m168 208v32l-32 40-32-40v-32zm0 0" fill="#ffdaaa" data-original="#FFDAAA" class=""/><path d="m168 304-32 72-32-72 32-24zm0 0" fill="#e6e7e8" data-original="#E6E7E8"/><path d="m152 8-2.558594 25.441406-5.441406 54.558594h-16l-5.441406-54.558594-2.558594-25.441406zm0 0" fill="#57565c" data-original="#57565C" class="active-path" style="fill:#FF0059" data-old_color="#FF0014"/><path d="m136 376v96h-80v-136l10.800781-13.839844zm0 0" fill="#787680" data-original="#787680"/><path d="m104 240 32 40-32 24-16-40zm0 0" fill="#d1d3d4" data-original="#D1D3D4"/><path d="m104 304 32 72-69.199219-53.839844-2.800781-2.160156 16-16-24-16 18.558594-43.359375c9.507812-3.101563 19.445312-4.667969 29.441406-4.640625l-16 24zm0 0" fill="#57565c" data-original="#57565C" class="active-path" style="fill:#FF0059" data-old_color="#FF0014"/><path d="m80 304-16 16 2.800781 2.160156-10.800781 13.839844v136h-48v-136c-.027344-41.683594 26.875-78.609375 66.558594-91.359375l-18.558594 43.359375zm0 0" fill="#787680" data-original="#787680"/><path d="m72 120v32h-8c-8.808594-.066406-15.933594-7.191406-16-16 .027344-8.824219 7.175781-15.972656 16-16zm0 0" fill="#f1cfa2" data-original="#F1CFA2"/><path d="m104 208h64v16h-64zm0 0" fill="#f1cfa2" data-original="#F1CFA2"/><path d="m176 232.40625v-17.207031c18.613281-3.828125 31.976562-20.199219 32-39.199219v-16c13.253906 0 24-10.746094 24-24s-10.746094-24-24-24v-16c.15625-31.269531-20.085938-58.988281-49.921875-68.359375l1.882813-18.839844c.226562-2.25-.511719-4.492187-2.027344-6.167969-1.515625-1.675781-3.671875-2.632812-5.933594-2.632812h-32c-2.269531-.0117188-4.433594.941406-5.960938 2.617188-1.523437 1.679687-2.265624 3.925781-2.039062 6.183593l1.871094 18.71875c-29.648438 9.6875-49.746094 37.289063-49.871094 68.480469v16c-13.253906 0-24 10.746094-24 24s10.746094 24 24 24v16c.023438 19 13.390625 35.371094 32 39.199219v17.21875c-54.117188 4.207031-95.9101562 49.300781-96 103.582031v136c0 4.417969 3.582031 8 8 8h256c4.417969 0 8-3.582031 8-8v-136c-.085938-54.28125-41.878906-99.382812-96-103.59375zm30.023438 52.625-18.464844 12.3125c-1.992188 1.332031-3.285156 3.484375-3.519532 5.867188-.234374 2.386718.609376 4.75 2.304688 6.445312l9.601562 9.601562-39.679687 30.863282 35.199219-83.144532c.96875-2.449218.667968-5.222656-.800782-7.410156l-6.695312-10.039062c2.589844.480468 5.128906 1.089844 7.632812 1.785156zm-121.597657 12.3125-18.464843-12.3125 14.398437-33.726562c2.503906-.695313 5.039063-1.304688 7.632813-1.785157l-6.695313 10.039063c-1.472656 2.1875-1.769531 4.960937-.800781 7.410156l35.199218 83.144531-39.679687-30.863281 9.601563-9.601562c1.695312-1.695313 2.539062-4.058594 2.304687-6.445313-.238281-2.382813-1.527344-4.535156-3.523437-5.867187zm20.140625-43.808594 20 25.015625-17.046875 12.800781-10.558593-26.398437zm31.433594 36.464844 22.105469 16.574219-22.105469 49.730469-22.105469-49.730469zm28.449219 1.335938-17.050781-12.800782 20-25.015625 7.59375 11.402344zm-4.449219-54.144532-24 30.007813-24-30v-21.199219h48zm56-101.191406c0 4.417969-3.582031 8-8 8v-16c4.417969 0 8 3.582031 8 8zm-72.800781-120-6.398438 64h-1.519531l-6.402344-64zm-87.199219 120c0-4.417969 3.582031-8 8-8v16c-4.417969 0-8-3.582031-8-8zm24 40v-80c.097656-22.992188 14.175781-43.609375 35.550781-52.070312l4.488281 44.871093c.414063 4.101563 3.878907 7.21875 8 7.199219h16c4.109376 0 7.550782-3.113281 7.960938-7.199219l4.488281-44.855469c21.492188 8.300782 35.621094 29.015626 35.511719 52.054688v80c0 13.253906-10.746094 24-24 24h-64c-13.253906 0-24-10.746094-24-24zm-64 160c.039062-31.011719 16.40625-59.714844 43.078125-75.535156l-10.398437 24.382812c-1.519532 3.542969-.296876 7.667969 2.914062 9.808594l15.878906 10.582031-9.097656 9.105469c-1.632812 1.625-2.484375 3.871094-2.34375 6.167969.144531 2.296875 1.269531 4.421875 3.089844 5.832031l68.878906 53.566406v84.089844h-64v-128h-16v128h-32zm240 128h-32v-128h-16v128h-64v-84.089844l68.910156-53.597656c1.824219-1.410156 2.949219-3.535156 3.089844-5.832031.144531-2.296875-.710938-4.546875-2.34375-6.167969l-9.097656-9.074219 15.882812-10.582031c3.207032-2.140625 4.429688-6.265625 2.910156-9.808594l-10.398437-24.382812c26.660156 15.828125 43.015625 44.527344 43.046875 75.535156zm0 0" data-original="#000000" class="" style="fill:#000000"/><path d="m154.320312 125.679688c.777344.707031 1.671876 1.273437 2.640626 1.679687 1.9375.855469 4.140624.855469 6.078124 0 .96875-.40625 1.863282-.972656 2.640626-1.679687 1.503906-1.503907 2.339843-3.550782 2.320312-5.679688.019531-3.25-1.929688-6.1875-4.933594-7.433594-3-1.246094-6.457031-.554687-8.746094 1.753906-1.476562 1.523438-2.308593 3.558594-2.320312 5.679688.011719 1.046875.230469 2.078125.640625 3.039062.40625.96875.976563 1.863282 1.679687 2.640626zm0 0" data-original="#000000" class="" style="fill:#000000"/><path d="m106.320312 125.679688c.777344.707031 1.671876 1.273437 2.640626 1.679687 2.460937 1.054687 5.285156.796875 7.511718-.6875 2.226563-1.484375 3.554688-3.996094 3.527344-6.671875-.03125-2.117188-.859375-4.148438-2.320312-5.679688-.777344-.707031-1.671876-1.273437-2.640626-1.679687-1.945312-.808594-4.132812-.808594-6.078124 0-.96875.40625-1.863282.972656-2.640626 1.679687-1.476562 1.523438-2.308593 3.558594-2.320312 5.679688.011719 1.046875.230469 2.078125.640625 3.039062.40625.96875.976563 1.863282 1.679687 2.640626zm0 0" data-original="#000000" class="" style="fill:#000000"/></g> </svg>
