<svg height="423.25333pt" viewBox="0 0 423.25333 423.25333" width="423.25333pt" xmlns="http://www.w3.org/2000/svg"><path d="m211.625 395.945312c-101.800781 0-184.316406 6.117188-184.316406 13.65625 0 7.542969 82.515625 13.652344 184.316406 13.652344s184.324219-6.109375 184.324219-13.652344c0-7.539062-82.523438-13.65625-184.324219-13.65625" fill="#eeeef0"/><path d="m88.746094 20.761719v54.332031h40.960937l-27.773437-58.988281c-3.699219-7.871094-13.1875-4.523438-13.1875 4.65625zm0 0" fill="#ff927d"/><path d="m88.746094 20.761719h-6.824219v54.332031c0 1.824219.707031 3.535156 2 4.824219 1.285156 1.292969 3 2.003906 4.824219 2.003906h40.960937c2.328125 0 4.515625-1.203125 5.761719-3.167969 1.25-1.964844 1.40625-4.460937.414062-6.566406l-27.773437-58.992188c-1.140625-2.429687-2.816406-4.550781-4.960937-6.039062-2.136719-1.503906-4.714844-2.300781-7.21875-2.289062-4 0-7.644532 1.898437-10.125 4.796874-2.503907 2.90625-3.894532 6.84375-3.882813 11.097657h13.652344c.007812-1.378907.402343-1.976563.585937-2.195313l.101563-.105468.015625-.007813-.347656-.632813v.699219l.347656-.066406-.347656-.632813v.699219-.992187l-.582032.832031.582032.160156v-.992187l-.582032.832031.039063-.058594-.046875.054688.007812.003906.039063-.058594-.050781.054688.414062.652343 23.199219 49.257813h-23.375v-47.503906zm0 0" fill="#54596e"/><path d="m334.507812 20.761719v54.332031h-40.960937l27.773437-58.988281c3.699219-7.871094 13.1875-4.523438 13.1875 4.65625zm0 0" fill="#ff927d"/><path d="m334.507812 20.761719h-6.828124v47.503906h-23.375l23.191406-49.253906.34375-.574219.078125-.085938-.59375-.734374v.902343l.59375-.171875-.59375-.734375v.902344-.757813l-.339844.699219.339844.058594v-.757813l-.339844.699219.019531-.039062-.023437.035156.003906.003906.019531-.035156-.023437.035156c.039062.039063.675781.496094.703125 2.304688h13.648437c.011719-4.253907-1.378906-8.191407-3.886719-11.097657-2.480468-2.894531-6.125-4.796874-10.121093-4.796874-2.507813-.011719-5.085938.789062-7.21875 2.289062-2.148438 1.492188-3.824219 3.613281-4.964844 6.042969l-27.769531 58.988281c-.992188 2.105469-.835938 4.597656.414062 6.566406 1.242188 1.960938 3.433594 3.167969 5.761719 3.167969h40.960937c1.820313 0 3.535157-.710937 4.824219-2 1.292969-1.289063 2-3.003906 2-4.828125v-54.332031zm0 0" fill="#54596e"/><path d="m68.265625 150.1875v197.078125c0 34.425781 27.910156 62.335937 62.332031 62.335937h20.019532c14.839843 0 26.875-12.035156 26.875-26.875v-20.914062h68.265624v20.914062c0 14.839844 12.035157 26.875 26.875 26.875h20.019532c34.425781 0 62.335937-27.910156 62.335937-62.335937v-197.078125c0-79.175781-64.1875-143.359375-143.363281-143.359375-79.171875 0-143.359375 64.183594-143.359375 143.359375zm0 0" fill="#ff927d"/><g fill="#54596e"><path d="m68.265625 150.1875h-6.824219v197.078125c.003906 38.199219 30.960938 69.15625 69.15625 69.160156h20.019532c18.613281-.003906 33.695312-15.085937 33.699218-33.699219v-14.089843h54.613282v14.089843c.007812 18.613282 15.089843 33.695313 33.703124 33.699219h20.019532c38.199218-.003906 69.152344-30.964843 69.15625-69.160156v-197.078125c-.003906-82.949219-67.238282-150.18359375-150.183594-150.1875-82.949219.00390625-150.183594 67.238281-150.1875 150.1875h13.65625c.003906-37.726562 15.269531-71.816406 39.988281-96.546875 24.730469-24.714844 58.820313-39.984375 96.542969-39.988281 37.722656.007812 71.816406 15.273437 96.542969 39.992187 24.722656 24.726563 39.988281 58.816407 39.992187 96.542969v197.078125c-.003906 15.347656-6.203125 29.183594-16.257812 39.25-10.066406 10.054687-23.898438 16.253906-39.25 16.257813h-20.019532c-11.066406-.023438-20.027343-8.980469-20.046874-20.046876v-20.914062c0-1.796875-.726563-3.554688-1.996094-4.828125-1.273438-1.269531-3.03125-1.996094-4.828125-1.996094h-68.269531c-1.796876 0-3.554688.726563-4.828126 1.996094-1.269531 1.273437-1.996093 3.03125-1.996093 4.828125v20.914062c-.023438 11.066407-8.980469 20.023438-20.046875 20.046876h-20.019532c-15.351562-.003907-29.183593-6.203126-39.25-16.257813-10.054687-10.066406-16.253906-23.902344-16.257812-39.25v-197.078125zm0 0"/><path d="m157.011719 368.640625h109.226562c3.773438 0 6.828125-3.058594 6.828125-6.828125s-3.054687-6.824219-6.828125-6.824219h-109.226562c-3.769531 0-6.824219 3.054688-6.824219 6.824219s3.054688 6.828125 6.824219 6.828125"/><path d="m143.359375 143.359375c0 7.542969-6.113281 13.652344-13.652344 13.652344-7.539062 0-13.652343-6.109375-13.652343-13.652344 0-7.539063 6.113281-13.652344 13.652343-13.652344 7.539063 0 13.652344 6.113281 13.652344 13.652344zm0 0"/><path d="m307.199219 143.359375c0 7.542969-6.113281 13.652344-13.652344 13.652344s-13.652344-6.109375-13.652344-13.652344c0-7.539063 6.113281-13.652344 13.652344-13.652344s13.652344 6.113281 13.652344 13.652344zm0 0"/><path d="m218.453125 307.199219h-13.652344c-22.621093 0-40.960937-18.335938-40.960937-40.960938v-47.785156c0-22.621094 18.339844-40.960937 40.960937-40.960937h13.652344c22.621094 0 40.960937 18.339843 40.960937 40.960937v47.785156c0 22.625-18.339843 40.960938-40.960937 40.960938zm0 0"/></g><path d="m197.972656 204.800781v27.304688l-20.480468-20.480469 20.480468-13.652344" fill="#f3f3f3"/><path d="m225.28125 204.800781v27.304688l20.480469-20.480469-20.480469-13.652344" fill="#f3f3f3"/><path d="m238.933594 286.71875c0-16.964844-12.226563-30.71875-27.308594-30.71875-15.078125 0-27.304688 13.753906-27.304688 30.71875" fill="#ffb8f2"/><path d="m129.707031 259.414062v6.824219c0 33.882813-27.558593 61.441407-61.441406 61.441407-33.878906 0-61.4375-27.558594-61.4375-61.441407v-47.785156c0-11.3125 9.164063-20.480469 20.480469-20.480469 11.3125 0 20.476562 9.167969 20.476562 20.480469v47.785156c0 11.292969 9.1875 20.480469 20.480469 20.480469s20.480469-9.1875 20.480469-20.480469v-6.824219" fill="#f4a14e"/><path d="m122.878906 259.414062v6.824219c-.003906 15.070313-6.109375 28.6875-16.015625 38.597657-9.914062 9.902343-23.527343 16.015624-38.597656 16.015624s-28.683594-6.113281-38.597656-16.015624c-9.902344-9.910157-16.011719-23.527344-16.015625-38.597657v-47.785156c.015625-7.542969 6.113281-13.640625 13.65625-13.65625 7.539062.015625 13.636718 6.113281 13.652344 13.65625v47.785156c.011718 15.078125 12.230468 27.292969 27.304687 27.308594 15.078125-.015625 27.292969-12.230469 27.308594-27.308594v-6.824219c0-3.773437-3.058594-6.828124-6.828125-6.828124-3.769532 0-6.824219 3.054687-6.824219 6.828124v6.824219c-.015625 7.511719-6.144531 13.640625-13.65625 13.65625-7.511719-.015625-13.636719-6.144531-13.652344-13.65625v-47.785156c-.003906-15.085937-12.222656-27.304687-27.304687-27.304687-15.085938 0-27.30468775 12.21875-27.308594 27.304687v47.785156c.0117188 37.664063 30.605469 68.253907 68.265625 68.265625 37.664063-.011718 68.253906-30.601562 68.269531-68.265625v-6.824219c0-3.773437-3.058594-6.828124-6.828125-6.828124s-6.828125 3.058593-6.828125 6.828124zm0 0" fill="#54596e"/><path d="m293.546875 197.972656v40.960938c0 33.878906 27.558594 61.441406 61.441406 61.441406 33.878907 0 61.4375-27.5625 61.4375-61.441406v-13.652344c0-11.316406-9.164062-20.480469-20.480469-20.480469-11.3125 0-20.480468 9.164063-20.480468 20.480469v13.652344c0 11.292968-9.183594 20.480468-20.476563 20.480468s-20.480469-9.1875-20.480469-20.480468v-40.960938" fill="#f4a14e"/><path d="m286.71875 197.972656v40.960938c.011719 37.660156 30.605469 68.253906 68.269531 68.265625 37.660157-.011719 68.25-30.605469 68.265625-68.265625v-13.652344c-.003906-15.085938-12.222656-27.304688-27.308594-27.308594-15.082031.003906-27.300781 12.222656-27.304687 27.308594v13.652344c-.015625 7.507812-6.144531 13.636718-13.652344 13.652344-7.511719-.015626-13.640625-6.144532-13.65625-13.652344v-40.960938c0-3.769531-3.054687-6.824218-6.824219-6.824218-3.769531 0-6.828124 3.054687-6.828124 6.824218v40.960938c.011718 15.074218 12.230468 27.292968 27.308593 27.304687 15.074219-.011719 27.292969-12.230469 27.304688-27.304687v-13.652344c.015625-7.542969 6.113281-13.640625 13.652343-13.65625 7.542969.015625 13.640626 6.113281 13.65625 13.65625v13.652344c-.003906 15.066406-6.113281 28.683594-16.015624 38.597656-9.914063 9.902344-23.53125 16.011719-38.597657 16.015625-15.070312-.003906-28.6875-6.113281-38.597656-16.015625-9.90625-9.914062-16.015625-23.53125-16.015625-38.597656v-40.960938c0-3.769531-3.058594-6.824218-6.828125-6.824218s-6.828125 3.054687-6.828125 6.824218zm0 0" fill="#54596e"/></svg>