<svg height="423pt" viewBox="-14 0 423 423.25333" width="423pt" xmlns="http://www.w3.org/2000/svg"><path d="m198.101562 395.945312c-101.800781 0-184.324218 6.117188-184.324218 13.65625 0 7.542969 82.523437 13.652344 184.324218 13.652344 101.792969 0 184.316407-6.109375 184.316407-13.652344 0-7.539062-82.523438-13.65625-184.316407-13.65625" fill="#eeeef0"/><path d="m54.738281 150.1875v197.078125c0 34.425781 27.914063 62.335937 62.335938 62.335937h20.019531c14.839844 0 26.871094-12.035156 26.871094-26.875v-20.914062h68.269531v20.914062c0 14.839844 12.03125 26.875 26.871094 26.875h20.019531c34.425781 0 62.335938-27.910156 62.335938-62.335937v-197.078125c0-79.175781-64.183594-143.359375-143.359376-143.359375-79.179687 0-143.363281 64.183594-143.363281 143.359375zm0 0" fill="#fff35f"/><g fill="#54596e"><path d="m54.738281 150.1875h-6.824219v197.078125c.003907 38.199219 30.964844 69.15625 69.160157 69.160156h20.019531c18.613281-.003906 33.695312-15.085937 33.699219-33.699219v-14.089843h54.613281v14.089843c.003906 18.613282 15.085938 33.695313 33.699219 33.699219h20.019531c38.199219-.003906 69.160156-30.964843 69.160156-69.160156v-197.078125c-.003906-82.949219-67.234375-150.18359375-150.183594-150.1875-82.949218.00390625-150.183593 67.238281-150.1875 150.1875h13.652344c.003906-37.726562 15.273438-71.816406 39.988282-96.546875 24.730468-24.714844 58.820312-39.984375 96.546874-39.988281 37.722657.007812 71.8125 15.273437 96.542969 39.992187 24.71875 24.726563 39.984375 58.816407 39.988281 96.542969v197.078125c-.003906 15.347656-6.203124 29.183594-16.257812 39.25-10.070312 10.054687-23.902344 16.253906-39.253906 16.257813h-20.015625c-11.066407-.023438-20.027344-8.980469-20.046875-20.046876v-20.914062c0-1.796875-.730469-3.554688-2-4.828125-1.269532-1.269531-3.027344-1.996094-4.824219-1.996094h-68.269531c-1.796875 0-3.554688.726563-4.824219 1.996094-1.269531 1.273437-2 3.03125-2 4.828125v20.914062c-.019531 11.066407-8.980469 20.023438-20.046875 20.046876h-20.019531c-15.347657-.003907-29.183594-6.203126-39.25-16.257813-10.054688-10.066406-16.253907-23.902344-16.257813-39.25v-197.078125zm0 0"/><path d="m143.488281 368.640625h109.226563c3.769531 0 6.824218-3.058594 6.824218-6.828125s-3.054687-6.824219-6.824218-6.824219h-109.226563c-3.773437 0-6.828125 3.054688-6.828125 6.824219s3.054688 6.828125 6.828125 6.828125"/><path d="m129.832031 143.359375c0 7.542969-6.113281 13.652344-13.652343 13.652344-7.539063 0-13.652344-6.109375-13.652344-13.652344 0-7.539063 6.113281-13.652344 13.652344-13.652344 7.539062 0 13.652343 6.113281 13.652343 13.652344zm0 0"/><path d="m293.671875 143.359375c0 7.542969-6.113281 13.652344-13.652344 13.652344-7.539062 0-13.652343-6.109375-13.652343-13.652344 0-7.539063 6.113281-13.652344 13.652343-13.652344 7.539063 0 13.652344 6.113281 13.652344 13.652344zm0 0"/><path d="m272.824219 261.570312-43.851563 6.746094c-20.414062 3.144532-41.328125 3.144532-61.746094 0l-43.847656-6.746094c-8.121094-1.246093-14.027344-7.234374-14.027344-14.214843v-38.894531c0-9.015626 9.652344-15.828126 20.132813-14.214844l37.742187 5.804687c20.417969 3.140625 41.332032 3.140625 61.746094 0l37.742188-5.804687c10.480468-1.613282 20.132812 5.199218 20.132812 14.214844v38.894531c0 6.980469-5.90625 12.96875-14.023437 14.214843zm0 0"/></g><path d="m129.832031 204.800781h34.132813v3.414063c0 9.421875-7.640625 17.066406-17.066406 17.066406-9.425782 0-17.066407-7.644531-17.066407-17.066406zm0 0" fill="#fff"/><path d="m232.234375 204.800781h34.132813v3.414063c0 9.421875-7.640626 17.066406-17.066407 17.066406s-17.066406-7.644531-17.066406-17.066406zm0 0" fill="#fff"/><path d="m252.714844 242.347656c0-13.195312-24.453125-23.894531-54.613282-23.894531-30.164062 0-54.613281 10.699219-54.613281 23.894531 0 3.308594 1.542969 6.460938 4.320313 9.328125l19.417968 2.988281c20.417969 3.140626 41.332032 3.140626 61.746094 0l19.417969-2.988281c2.78125-2.863281 4.324219-6.019531 4.324219-9.328125zm0 0" fill="#ffb8f2"/><path d="m75.21875 204.800781h-40.957031c-15.082031 0-27.308594 12.222657-27.308594 27.304688s12.226563 27.308593 27.308594 27.308593h40.957031" fill="#f4a14e"/><path d="m75.21875 197.972656h-40.957031c-18.855469.003906-34.128907 15.277344-34.136719 34.132813.007812 18.855469 15.28125 34.128906 34.136719 34.132812h40.957031c3.769531 0 6.828125-3.054687 6.828125-6.824219 0-3.769531-3.058594-6.824218-6.828125-6.824218l-40.957031-.003906c-11.308594-.019532-20.460938-9.171876-20.480469-20.480469.019531-11.308594 9.171875-20.457031 20.480469-20.480469h40.957031c3.769531 0 6.828125-3.058594 6.828125-6.824219 0-3.769531-3.058594-6.824219-6.828125-6.828125zm0 0" fill="#54596e"/><path d="m320.980469 204.800781h40.960937c15.078125 0 27.304688 12.222657 27.304688 27.304688s-12.226563 27.308593-27.304688 27.308593h-40.960937" fill="#f4a14e"/><path d="m320.980469 211.625h40.960937c11.304688.023438 20.457032 9.171875 20.480469 20.484375-.023437 11.308594-9.175781 20.457031-20.480469 20.480469h-40.960937c-3.769531 0-6.828125 3.054687-6.828125 6.824218 0 3.769532 3.058594 6.828126 6.828125 6.828126l40.960937-.003907c18.851563 0 34.125-15.277343 34.132813-34.128906-.007813-18.855469-15.28125-34.132813-34.132813-34.132813h-40.960937c-3.769531 0-6.828125 3.054688-6.828125 6.824219s3.058594 6.824219 6.828125 6.824219zm0 0" fill="#54596e"/><path d="m273.191406 81.921875c0 11.308594-9.167968 20.476563-20.476562 20.476563-11.3125 0-20.480469-9.167969-20.480469-20.476563 0-11.3125 9.167969-20.480469 20.480469-20.480469 11.308594 0 20.476562 9.167969 20.476562 20.480469zm0 0" fill="#f4a14e"/><path d="m211.753906 54.613281c0 7.539063-6.113281 13.652344-13.652344 13.652344-7.542968 0-13.65625-6.113281-13.65625-13.652344 0-7.539062 6.113282-13.652343 13.65625-13.652343 7.539063 0 13.652344 6.113281 13.652344 13.652343zm0 0" fill="#f4a14e"/><path d="m163.964844 40.960938c0 7.539062-6.109375 13.652343-13.652344 13.652343-7.539062 0-13.652344-6.113281-13.652344-13.652343 0-7.542969 6.113282-13.652344 13.652344-13.652344 7.542969 0 13.652344 6.109375 13.652344 13.652344zm0 0" fill="#f4a14e"/></svg>