<?xml version="1.0"?>
<svg xmlns="http://www.w3.org/2000/svg" height="512px" viewBox="-87 1 479 479.99964" width="512px" class=""><g><path d="m296.5 16v48s-37.519531-14.480469-64.082031-9.839844c-.15625-6.046875-1.519531-12.003906-4-17.519531 19.832031-14.128906 43.742187-21.378906 68.082031-20.640625zm0 0" fill="#6a563d" data-original="#6A563D" class="active-path" style="fill:#8D7658" data-old_color="#89765E"/><path d="m232.5 472h-208v-152c0-53.019531 42.980469-96 96-96l-16 24 16 40 32 72 32-72 16-40-16-24c53.019531 0 96 42.980469 96 96v152zm0 0" fill="#787680" data-original="#787680" class=""/><path d="m232.5 56v32c0 6.921875-2.246094 13.660156-6.398438 19.199219-2.773437-2.070313-6.140624-3.191407-9.601562-3.199219h-8v-16c-14.539062-9.066406-27.964844-19.804688-40-32-24 32-72 40-72 40v8h-8c-3.460938.007812-6.828125 1.128906-9.601562 3.199219-4.152344-5.539063-6.398438-12.277344-6.398438-19.199219v-32c-.015625-.613281.011719-1.230469.078125-1.839844.160156-6.046875 1.519531-12.003906 4-17.519531 7.671875-17.40625 24.898437-28.640625 43.921875-28.640625 11.828125-.027344 23.242188 4.367188 32 12.320312 8.757812-7.953124 20.171875-12.347656 32-12.320312 19.019531 0 36.246094 11.234375 43.917969 28.640625 2.480469 5.515625 3.84375 11.472656 4 17.519531.070312.609375.097656 1.226563.082031 1.839844zm0 0" fill="#806749" data-original="#806749" class="" style="fill:#B6936A" data-old_color="#806749"/><path d="m226.101562 107.199219c4 3.042969 6.363282 7.773437 6.398438 12.800781-.066406 8.808594-7.191406 15.933594-16 16h-8v-32h8c3.460938.007812 6.828125 1.128906 9.601562 3.199219zm0 0" fill="#f1cfa2" data-original="#F1CFA2" class=""/><path d="m208.5 104v48c-.035156 15.90625-9.445312 30.300781-24 36.71875-5.058594 2.160156-10.5 3.277344-16 3.28125h-32c-5.5-.003906-10.941406-1.121094-16-3.28125-14.554688-6.417969-23.964844-20.8125-24-36.71875v-56s48-8 72-40c12.035156 12.195312 25.460938 22.933594 40 32zm0 0" fill="#ffdaaa" data-original="#FFDAAA" class=""/><path d="m184.5 224 16 24-16 40-32-24zm0 0" fill="#d1d3d4" data-original="#D1D3D4" class=""/><path d="m184.5 188.71875v35.28125l-32 40-32-40v-35.28125c5.058594 2.160156 10.5 3.277344 16 3.28125h32c5.5-.003906 10.941406-1.121094 16-3.28125zm0 0" fill="#ffdaaa" data-original="#FFDAAA" class=""/><path d="m184.5 288-32 72-32-72 32-24zm0 0" fill="#e6e7e8" data-original="#E6E7E8" class=""/><path d="m120.5 224 32 40-32 24-16-40zm0 0" fill="#d1d3d4" data-original="#D1D3D4" class=""/><path d="m96.5 104v32h-8c-8.808594-.066406-15.933594-7.191406-16-16 0-8.835938 7.164062-16 16-16zm0 0" fill="#f1cfa2" data-original="#F1CFA2" class=""/><path d="m76.578125 36.640625c-2.480469 5.515625-3.839844 11.472656-4 17.519531-26.558594-4.640625-64.078125 9.839844-64.078125 9.839844v-48c24.339844-.738281 48.25 6.511719 68.078125 20.640625zm0 0" fill="#6a563d" data-original="#6A563D" class="active-path" style="fill:#8D7658" data-old_color="#89765E"/><path d="m184.5 188.71875v16c-5.058594 2.160156-10.5 3.277344-16 3.28125h-32c-5.5-.003906-10.941406-1.121094-16-3.28125v-16c5.058594 2.160156 10.5 3.277344 16 3.28125h32c5.5-.003906 10.941406-1.121094 16-3.28125zm0 0" fill="#f1cfa2" data-original="#F1CFA2" class=""/><path d="m183.859375 108.960938c-.175781-.511719-.417969-.996094-.71875-1.441407l-.960937-1.199219c-1.933594-1.855468-4.648438-2.660156-7.28125-2.160156-.5.085938-.984376.25-1.4375.480469-.511719.175781-.996094.414063-1.441407.71875l-1.199219.960937c-1.460937 1.535157-2.289062 3.5625-2.320312 5.679688.011719 1.046875.230469 2.078125.640625 3.039062.40625.96875.972656 1.863282 1.679687 2.640626l1.199219.960937c.445313.300781.929688.542969 1.441407.71875.453124.230469.9375.394531 1.4375.480469.53125.089844 1.066406.140625 1.601562.160156 2.117188-.03125 4.144531-.859375 5.679688-2.320312.707031-.777344 1.273437-1.671876 1.679687-2.640626.410156-.960937.628906-1.992187.640625-3.039062-.015625-.535156-.066406-1.070312-.160156-1.601562-.085938-.5-.25-.984376-.480469-1.4375zm0 0" data-original="#000000" class="" style="fill:#000000"/><path d="m132.980469 105.359375c-.445313-.304687-.929688-.542969-1.441407-.71875-.453124-.230469-.9375-.394531-1.4375-.480469-1.5625-.328125-3.183593-.160156-4.640624.480469-.96875.40625-1.863282.972656-2.640626 1.679687l-.960937 1.199219c-.300781.445313-.542969.929688-.71875 1.441407-.230469.453124-.394531.9375-.480469 1.4375-.09375.53125-.148437 1.066406-.160156 1.601562.011719 1.046875.230469 2.078125.640625 3.039062.726563 2.011719 2.308594 3.59375 4.320313 4.320313.960937.410156 1.992187.628906 3.039062.640625.535156-.019531 1.070312-.070312 1.601562-.160156.5-.085938.984376-.25 1.4375-.480469.511719-.175781.996094-.417969 1.441407-.71875l1.199219-.960937c.707031-.777344 1.273437-1.671876 1.679687-2.640626.410156-.960937.628906-1.992187.640625-3.039062-.03125-2.117188-.859375-4.144531-2.320312-5.679688zm0 0" data-original="#000000" class="" style="fill:#000000"/><path d="m296.5 8c-22.933594-.429688-45.539062 5.507812-65.304688 17.152344-8.296874-12.609375-21.34375-21.320313-36.167968-24.15625-14.820313-2.835938-30.164063.445312-42.527344 9.097656-12.367188-8.652344-27.707031-11.933594-42.53125-9.097656-14.820312 2.835937-27.867188 11.546875-36.164062 24.15625-19.765626-11.644532-42.371094-17.582032-65.304688-17.152344-4.417969 0-8 3.582031-8 8v48c0 2.636719 1.300781 5.105469 3.472656 6.597656 2.175782 1.492188 4.945313 1.816406 7.40625.867188 17-6.382813 34.964844-9.800782 53.121094-10.105469v26.640625c-.003906 6.335938 1.511719 12.582031 4.414062 18.214844-5.183593 7.3125-5.851562 16.90625-1.726562 24.863281s12.347656 12.945313 21.3125 12.921875v8c.023438 17.125 9.167969 32.941406 24 41.503906v22.902344c-54.121094 4.207031-95.917969 49.308594-96 103.59375v152c0 4.417969 3.582031 8 8 8h256c4.417969 0 8-3.582031 8-8v-152c-.082031-54.285156-41.878906-99.386719-96-103.59375v-22.902344c14.832031-8.5625 23.976562-24.378906 24-41.503906v-8c8.960938.023438 17.1875-4.964844 21.3125-12.921875s3.457031-17.550781-1.730469-24.863281c2.90625-5.632813 4.421875-11.878906 4.417969-18.214844v-26.640625c18.15625.324219 36.121094 3.738281 53.128906 10.105469.914063.355468 1.886719.535156 2.871094.535156 4.417969 0 8-3.582031 8-8v-48c0-4.417969-3.582031-8-8-8zm-176 8c9.84375-.011719 19.335938 3.640625 26.632812 10.246094 3.046876 2.757812 7.6875 2.757812 10.734376 0 7.296874-6.605469 16.789062-10.257813 26.632812-10.246094 22.082031.027344 39.972656 17.917969 40 40v32c-.019531 3.058594-.628906 6.089844-1.792969 8.917969-2.019531-.582031-4.105469-.890625-6.207031-.917969v-8c0-3.03125-1.710938-5.804688-4.425781-7.160156-13.761719-8.683594-26.488281-18.914063-37.917969-30.496094-1.640625-1.640625-3.910156-2.488281-6.222656-2.324219-2.3125.164063-4.441406 1.324219-5.832032 3.179688-21.738281 28.976562-66.472656 36.800781-66.929687 36.914062-3.851563.648438-6.671875 3.980469-6.671875 7.886719-2.101562.027344-4.191406.335938-6.207031.917969-1.164063-2.828125-1.773438-5.859375-1.792969-8.917969v-32c.027344-22.082031 17.917969-39.972656 40-40zm-104 36.871094v-28.632813c17.859375.75 35.226562 6.070313 50.441406 15.457031-.570312 1.875-1.039062 3.777344-1.402344 5.703126-16.640624-.171876-33.203124 2.351562-49.039062 7.472656zm64 67.128906c0-4.417969 3.582031-8 8-8v16c-4.417969 0-8-3.582031-8-8zm40.582031 117.535156 20 25.015625-17.046875 12.800781-10.558594-26.398437zm31.417969 36.464844 22.105469 16.574219-22.105469 49.730469-22.105469-49.730469zm28.449219 1.335938-17.050781-12.800782 20-25.015625 7.59375 11.398438zm91.550781 44.664062v144h-32v-68.425781c21.335938-25.132813 21.335938-62.015625 0-87.152344v-12.421875h-16v16c0 2.519531 1.183594 4.890625 3.199219 6.398438 7.199219 5.433593 12.800781 22.519531 12.800781 33.601562 0 11.078125-5.601562 28.175781-12.800781 33.601562-2.015625 1.507813-3.199219 3.878907-3.199219 6.398438v72h-144v-72c0-2.519531-1.1875-4.890625-3.199219-6.398438-7.199219-5.433593-12.800781-22.523437-12.800781-33.601562 0-11.082031 5.601562-28.175781 12.800781-33.601562 2.011719-1.507813 3.199219-3.878907 3.199219-6.398438v-16h-16v12.421875c-21.335938 25.136719-21.335938 62.019531 0 87.152344v68.425781h-32v-144c.066406-42.394531 30.320312-78.730469 72-86.480469l-6.695312 10.039063c-1.472657 2.191406-1.773438 4.964844-.800782 7.417968l48.121094 112.269532c1.28125 2.890625 4.148438 4.753906 7.3125 4.753906 3.160156 0 6.027344-1.863281 7.308594-4.753906l48.121094-112.269532c.972656-2.453124.675781-5.226562-.800782-7.417968l-6.695312-10.039063c41.734375 7.695313 72.050781 44.042969 72.128906 86.480469zm-96-98.800781-24 30-24-30v-21.917969c2.640625.460938 5.316406.703125 8 .71875h32c2.683594-.015625 5.359375-.257812 8-.71875zm24-69.199219c0 17.671875-14.328125 32-32 32h-32c-17.671875 0-32-14.328125-32-32v-49.519531c24.332031-5.421875 46.695312-17.464844 64.617188-34.792969 9.664062 9.292969 20.167968 17.667969 31.382812 25.015625zm16-24v-16c4.417969 0 8 3.582031 8 8s-3.582031 8-8 8zm72-75.128906c-15.835938-5.125-32.398438-7.648438-49.039062-7.472656-.363282-1.925782-.832032-3.828126-1.402344-5.703126 15.214844-9.386718 32.582031-14.707031 50.441406-15.457031zm0 0" data-original="#000000" class="" style="fill:#000000"/></g> </svg>
