<svg height="480pt" viewBox="-104 0 480 480" width="480pt" xmlns="http://www.w3.org/2000/svg"><path d="m264 312v160h-48v-160l-10.800781-13.839844 2.800781-2.160156-16-16 24-16-18.558594-43.359375c39.683594 12.75 66.585938 49.675781 66.558594 91.359375zm0 0" fill="#898890"/><path d="m208 96c8.824219.027344 15.972656 7.175781 16 16-.066406 8.808594-7.191406 15.933594-16 16h-8v-32zm0 0" fill="#f1cfa2"/><path d="m216 312v160h-80v-120l69.199219-53.839844zm0 0" fill="#898890"/><path d="m197.441406 220.640625 18.558594 43.359375-24 16 16 16-2.800781 2.160156-69.199219 53.839844 32-72 16-40-16-24c9.996094-.027344 19.933594 1.539062 29.441406 4.640625zm0 0" fill="#57565c"/><path d="m200 128v16h-25.359375c-4.265625 0-8.351563-1.699219-11.359375-4.71875l-6.640625-6.5625c-2.96875-3.027344-7.039063-4.730469-11.28125-4.71875h-18.71875c-4.242187-.011719-8.3125 1.691406-11.28125 4.71875l-6.640625 6.5625c-3.007812 3.019531-7.09375 4.71875-11.359375 4.71875h-25.359375v-72c0-35.347656 28.652344-64 64-64s64 28.652344 64 64zm0 0" fill="#ffdaaa"/><path d="m168 216 16 24-16 40-32-24zm0 0" fill="#d1d3d4"/><path d="m168 184v32l-32 40-32-40v-32zm0 0" fill="#ffdaaa"/><path d="m168 280-32 72-32-72 32-24zm0 0" fill="#e6e7e8"/><path d="m136 352v120h-80v-160l10.800781-13.839844zm0 0" fill="#787680"/><path d="m104 216 32 40-32 24-16-40zm0 0" fill="#d1d3d4"/><path d="m104 280 32 72-69.199219-53.839844-2.800781-2.160156 16-16-24-16 18.558594-43.359375c9.507812-3.101563 19.445312-4.667969 29.441406-4.640625l-16 24zm0 0" fill="#57565c"/><path d="m80 280-16 16 2.800781 2.160156-10.800781 13.839844v160h-48v-160c-.027344-41.683594 26.875-78.609375 66.558594-91.359375l-18.558594 43.359375zm0 0" fill="#787680"/><path d="m72 96v32h-8c-8.808594-.066406-15.933594-7.191406-16-16 .027344-8.824219 7.175781-15.972656 16-16zm0 0" fill="#f1cfa2"/><path d="m200 144v8c0 17.671875-14.328125 32-32 32h-64c-17.671875 0-32-14.328125-32-32v-8h25.359375c4.265625 0 8.351563-1.699219 11.359375-4.71875l6.640625-6.5625c2.96875-3.027344 7.039063-4.730469 11.28125-4.71875h18.71875c4.242187-.011719 8.3125 1.691406 11.28125 4.71875l6.640625 6.5625c3.007812 3.019531 7.09375 4.71875 11.359375 4.71875zm0 0" fill="#bcbec0"/><path d="m104 184h64v16h-64zm0 0" fill="#f1cfa2"/><path d="m176 208.40625v-17.207031c18.613281-3.828125 31.976562-20.199219 32-39.199219v-16c13.253906 0 24-10.746094 24-24s-10.746094-24-24-24v-16c0-39.765625-32.234375-72-72-72s-72 32.234375-72 72v16c-13.253906 0-24 10.746094-24 24s10.746094 24 24 24v16c.023438 19 13.386719 35.371094 32 39.199219v17.214843c-54.117188 4.207032-95.9140625 49.304688-96 103.585938v160c0 4.417969 3.582031 8 8 8h256c4.417969 0 8-3.582031 8-8v-160c-.082031-54.285156-41.878906-99.386719-96-103.59375zm30.03125 52.625-18.472656 12.3125c-1.992188 1.332031-3.285156 3.484375-3.519532 5.867188-.234374 2.386718.609376 4.75 2.304688 6.445312l9.601562 9.601562-39.664062 30.855469 35.199219-83.128906c.972656-2.453125.671875-5.226563-.800781-7.417969l-6.695313-10.039062c2.589844.480468 5.128906 1.089844 7.632813 1.785156zm-121.597656 12.3125-18.472656-12.3125 14.398437-33.726562c2.503906-.695313 5.039063-1.304688 7.632813-1.785157l-6.695313 10.039063c-1.472656 2.191406-1.773437 4.964844-.800781 7.417968l35.160156 83.128907-39.664062-30.859375 9.601562-9.597656c1.691406-1.695313 2.539062-4.058594 2.304688-6.445313-.238282-2.382813-1.527344-4.535156-3.523438-5.867187zm75.566406-81.34375v21.191406l-24 30.007813-24-30v-21.199219zm-55.414062 37.542969 20 25.007812-17.042969 12.800781-10.558594-26.398437zm31.414062 36.457031 22.105469 16.566406-22.105469 49.738282-22.105469-49.738282zm28.449219 1.335938-17.042969-12.800782 20-25.007812 7.59375 11.394531zm51.550781-155.335938c0 4.417969-3.582031 8-8 8v-16c4.417969 0 8 3.582031 8 8zm-136-40c0-30.929688 25.070312-56 56-56s56 25.070312 56 56v64h-17.382812c-2.121094-.007812-4.152344-.851562-5.65625-2.34375l-6.632813-6.632812c-4.492187-4.507813-10.601563-7.039063-16.96875-7.023438h-18.710937c-6.367188-.015625-12.476563 2.511719-16.96875 7.023438l-6.632813 6.632812c-1.503906 1.492188-3.535156 2.335938-5.65625 2.34375h-17.390625zm-24 40c0-4.417969 3.582031-8 8-8v16c-4.417969 0-8-3.582031-8-8zm24 40h17.390625c6.367187.015625 12.476563-2.511719 16.96875-7.023438l6.632813-6.632812c1.503906-1.492188 3.535156-2.335938 5.65625-2.34375h18.710937c2.125 0 4.164063.839844 5.664063 2.34375l6.625 6.625c4.488281 4.515625 10.597656 7.050781 16.96875 7.03125h17.382812c0 13.253906-10.746094 24-24 24h-64c-13.253906 0-24-10.746094-24-24zm-64 160c.046875-31.015625 16.417969-59.714844 43.089844-75.542969l-10.402344 24.390625c-1.519531 3.542969-.296875 7.667969 2.914062 9.808594l15.886719 10.582031-9.105469 9.105469c-1.632812 1.625-2.484374 3.871094-2.34375 6.167969.144532 2.296875 1.269532 4.421875 3.089844 5.832031l68.871094 53.578125v108.078125h-64v-152h-16v152h-32zm240 152h-32v-152h-16v152h-64v-108.078125l68.910156-53.601563c1.824219-1.410156 2.949219-3.535156 3.089844-5.832031.144531-2.296875-.710938-4.546875-2.34375-6.167969l-9.105469-9.105468 15.890625-10.582032c3.207032-2.140624 4.429688-6.265624 2.910156-9.808593l-10.398437-24.390625c26.664063 15.839844 43.015625 44.550781 43.046875 75.566406zm0 0"/><path d="m165.679688 90.320312c-3.207032-2.960937-8.152344-2.960937-11.359376 0-.707031.777344-1.273437 1.671876-1.679687 2.640626-.855469 1.9375-.855469 4.140624 0 6.078124.386719.980469.957031 1.875 1.679687 2.640626 1.53125 1.460937 3.5625 2.289062 5.679688 2.320312.535156-.015625 1.070312-.066406 1.601562-.160156.5-.089844.984376-.25 1.4375-.480469.511719-.175781.996094-.417969 1.441407-.71875.417969-.296875.816406-.617187 1.199219-.960937 1.460937-1.535157 2.289062-3.5625 2.320312-5.679688-.011719-1.046875-.230469-2.078125-.640625-3.039062-.40625-.96875-.972656-1.863282-1.679687-2.640626zm0 0"/><path d="m112 104c3.769531-.039062 6.992188-2.730469 7.699219-6.433594s-1.292969-7.390625-4.785157-8.816406c-3.488281-1.425781-7.5-.195312-9.589843 2.945312-2.085938 3.140626-1.671875 7.316407.996093 9.984376 1.535157 1.460937 3.5625 2.289062 5.679688 2.320312zm0 0"/><path d="m104 56h64v16h-64zm0 0"/><path d="m120 32h32v16h-32zm0 0"/></svg>