<svg height="512pt" viewBox="0 0 512.00089 512" width="512pt" xmlns="http://www.w3.org/2000/svg"><path d="m435.199219 221.867188h-153.597657c-4.714843 0-8.535156 3.820312-8.535156 8.53125v68.265624c0 4.714844 3.820313 8.535157 8.535156 8.535157h153.597657c4.710937 0 8.535156-3.820313 8.535156-8.535157v-68.265624c0-4.710938-3.824219-8.53125-8.535156-8.53125zm-8.535157 68.265624h-136.53125v-51.199218h136.535157v51.199218zm0 0"/><path d="m503.464844 153.597656h-8.53125v-18.636718c9.910156-3.535157 17.066406-12.917969 17.066406-24.027344 0-14.117188-11.484375-25.601563-25.601562-25.601563-14.117188 0-25.597657 11.484375-25.597657 25.601563 0 11.109375 7.152344 20.492187 17.066407 24.027344v18.636718h-8.535157c-4.710937 0-8.53125 3.824219-8.53125 8.535156v8.402344c-24.953125-.660156-72.125-4.164062-89.109375-15.484375-9.234375-6.203125-19.523437-11.535156-30.359375-16.21875v-9.78125l15.464844-61.859375c10.734375-3.046875 18.667969-12.828125 18.667969-24.527344 0-14.113281-11.484375-25.597656-25.597656-25.597656-14.117188 0-25.601563 11.480469-25.601563 25.597656 0 3.988282.996094 7.71875 2.628906 11.085938-.183593.179688-.433593.261719-.601562.457031l-6.707031 7.902344c-6.464844 7.515625-16.066407 10.558594-25.683594 8.164063-9.621094-2.40625-16.65625-9.628907-18.816406-19.273438l-1.503907-6.886719c4.914063-4.664062 8.015625-11.21875 8.015625-18.511719 0-14.117187-11.480468-25.601562-25.597656-25.601562s-25.601562 11.484375-25.601562 25.601562c0 7.292969 3.101562 13.847657 8.015624 18.511719l-1.496093 6.847657c-2.164063 9.6875-9.203125 16.90625-18.824219 19.316406-9.585938 2.40625-19.210938-.648438-25.648438-8.132813l-6.742187-7.9375c-.167969-.195312-.417969-.277343-.601563-.453125 1.632813-3.367187 2.628907-7.097656 2.628907-11.085937 0-14.117188-11.480469-25.601563-25.597657-25.601563-14.117187 0-25.601562 11.484375-25.601562 25.601563 0 11.695312 7.933594 21.480469 18.667969 24.523437l15.464843 61.859375v9.78125c-10.832031 4.6875-21.121093 10.011719-30.332031 16.199219-17.007812 11.339844-64.183593 14.84375-89.136719 15.503906v-8.402344c0-4.710937-3.820312-8.53125-8.53125-8.53125h-8.535156v-18.640624c9.914063-3.535157 17.066406-12.917969 17.066406-24.027344 0-14.117188-11.480468-25.601563-25.597656-25.601563-14.117187 0-25.597656 11.484375-25.597656 25.601563 0 11.109375 7.15625 20.492187 17.066406 24.027344v18.636718h-8.53125c-4.714844 0-8.535156 3.824219-8.535156 8.535156v341.332032c0 4.714844 3.820312 8.535156 8.535156 8.535156h34.132813c4.710937 0 8.53125-3.820312 8.53125-8.535156v-25.601563h409.601562v25.601563c0 4.714844 3.820313 8.535156 8.53125 8.535156h34.136719c4.710938 0 8.53125-3.820312 8.53125-8.535156v-341.332032c0-4.714843-3.820312-8.535156-8.535156-8.535156zm-153.597656-119.464844c4.703124 0 8.53125 3.828126 8.53125 8.53125 0 4.707032-3.828126 8.535157-8.53125 8.535157-4.707032 0-8.535157-3.828125-8.535157-8.535157 0-4.703124 3.832031-8.53125 8.535157-8.53125zm136.53125 68.265626c4.707031 0 8.535156 3.828124 8.535156 8.535156 0 4.703125-3.828125 8.53125-8.535156 8.53125-4.703126 0-8.53125-3.828125-8.53125-8.53125 0-4.707032 3.828124-8.535156 8.53125-8.535156zm-230.398438-85.332032c4.703125 0 8.53125 3.828125 8.53125 8.53125 0 4.707032-3.828125 8.535156-8.53125 8.535156s-8.535156-3.828124-8.535156-8.535156c0-4.703125 3.832031-8.53125 8.535156-8.53125zm-80.75 51.199219 4.222656 4.964844c10.601563 12.335937 26.988282 17.542969 42.765625 13.597656 15.777344-3.945313 27.785157-16.261719 31.347657-32.1875l.75-3.441406h3.328124l.757813 3.480469c3.554687 15.886718 15.5625 28.203124 31.339844 32.148437 15.773437 3.941406 32.167969-1.261719 42.800781-13.632813l4.1875-4.929687h2.1875l-14.417969 57.660156c-.167969.679688-.253906 1.375-.253906 2.070313v59.734375h-136.53125v-59.734375c0-.695313-.089844-1.390625-.253906-2.070313l-14.417969-57.660156zm-13.117188-17.066406c-4.703124 0-8.535156-3.828125-8.535156-8.535157 0-4.703124 3.832032-8.53125 8.535156-8.53125 4.703126 0 8.535157 3.828126 8.535157 8.53125 0 4.707032-3.832031 8.535157-8.535157 8.535157zm-110.933593 213.332031h17.066406v34.132812c0 4.714844 3.820313 8.535157 8.535156 8.535157h153.597657c4.714843 0 8.535156-3.820313 8.535156-8.535157v-68.265624c0-4.710938-3.820313-8.53125-8.535156-8.53125h-153.597657c-4.714843 0-8.535156 3.820312-8.535156 8.53125v17.066406h-17.066406v-17.066406h17.066406v-17.300782c12.144531-.558594 34.984375-2.433594 53.898437-8.738281 26.738282-8.910156 36.453126-18.105469 37.46875-19.128906l-11.980468-12.152344c-.078125.074219-8.132813 7.507813-30.886719 15.089844-23.941406 7.984375-56.707031 8.097656-57.039063 8.097656-4.707031.003906-8.527343 3.820313-8.527343 8.53125v-17.179687c21.78125-.515626 76.007812-3.324219 98.625-18.402344 6.472656-4.347656 13.445312-8.316406 20.839843-11.867188v38.917969c0 4.710937 3.824219 8.53125 8.535157 8.53125h153.597656c4.714844 0 8.535156-3.820313 8.535156-8.53125v-38.917969c7.394531 3.554688 14.378907 7.523438 20.867188 11.882813 22.59375 15.0625 76.824219 17.871093 98.597656 18.386719v136.648437h-409.597656zm34.132812 25.601562v-51.199218h136.535157v51.199218zm-59.730469-187.734374c4.703126 0 8.53125 3.828124 8.53125 8.535156 0 4.703125-3.828124 8.53125-8.53125 8.53125-4.707031 0-8.535156-3.828125-8.535156-8.53125 0-4.707032 3.828125-8.535156 8.535156-8.535156zm-8.535156 68.265624h17.066406v153.601563h-17.066406zm17.066406 324.269532h-17.066406v-17.070313h17.066406zm460.800782 0h-17.066406v-17.070313h17.066406zm0-34.136719h-477.867188v-51.199219h477.867188zm0-68.265625h-477.867188v-51.199219h477.867188zm0-68.265625h-17.066406v-153.601563h17.066406zm0 0"/><path d="m256 170.664062c18.820312 0 34.132812-15.3125 34.132812-34.132812s-15.3125-34.132812-34.132812-34.132812-34.132812 15.3125-34.132812 34.132812 15.3125 34.132812 34.132812 34.132812zm0-51.199218c9.414062 0 17.066406 7.65625 17.066406 17.066406 0 9.414062-7.652344 17.066406-17.066406 17.066406s-17.066406-7.652344-17.066406-17.066406c0-9.410156 7.652344-17.066406 17.066406-17.066406zm0 0"/><path d="m375.464844 426.664062h102.402344v17.066407h-102.402344zm0 0"/><path d="m341.332031 426.664062h17.066407v17.066407h-17.066407zm0 0"/></svg>