<?xml version="1.0" encoding="iso-8859-1"?>
<!-- Generator: Adobe Illustrator 19.0.0, SVG Export Plug-In . SVG Version: 6.00 Build 0)  -->
<svg version="1.1" id="Capa_1" xmlns="http://www.w3.org/2000/svg" xmlns:xlink="http://www.w3.org/1999/xlink" x="0px" y="0px"
	 viewBox="0 0 480.003 480.003" style="enable-background:new 0 0 480.003 480.003;" xml:space="preserve">
<g>
	<g>
		<g>
			<path d="M304.003,409.29c1.51-3.828,2.059-7.967,1.6-12.056l16.928-5.648l-5.056-15.2l-18.504,6.168
				c-7.433-8.023-19.156-10.412-29.136-5.936c-6.955,3.18-14.294,5.442-21.832,6.728v-15.344h24c4.418,0,8-3.582,8-8v-64
				c0-4.418-3.582-8-8-8h-24v-16.8c21.65-4.396,35.636-25.51,31.24-47.16c-3.196-15.741-15.499-28.044-31.24-31.24V175.49
				c17.62-1.362,32.952-12.578,39.584-28.96c0.958-2.873,0.212-6.041-1.928-8.184l-37.656-37.656V86.722
				c14.773-5.026,24.518-19.125,24-34.72c0.518-15.595-9.227-29.694-24-34.72V0.002h-16v17.28c-14.772,5.026-24.518,19.125-24,34.72
				c-0.518,15.595,9.228,29.694,24,34.72v13.968l-37.656,37.656c-2.14,2.143-2.886,5.311-1.928,8.184
				c6.632,16.381,21.964,27.598,39.584,28.96v17.312c-21.65,4.396-35.636,25.51-31.24,47.16c3.196,15.741,15.499,28.044,31.24,31.24
				v16.8h-24c-4.418,0-8,3.582-8,8v64c0,4.418,3.582,8,8,8h24v15.696c-12.737-1.002-25.39-2.873-37.872-5.6
				c-8.582-1.805-17.303,2.396-21.24,10.232c-4.307,8.436-1.777,18.754,5.944,24.24c15.7,10.988,34.061,17.561,53.168,19.032v48.4
				h16v-48.32c13.907-0.61,27.652-3.243,40.8-7.816C295.726,421.412,301.262,416.104,304.003,409.29z M224.003,52.002
				c-0.943-9.894,6.141-18.749,16-20c9.859,1.251,16.943,10.106,16,20c0.943,9.894-6.141,18.749-16,20
				C230.144,70.75,223.06,61.895,224.003,52.002z M209.747,145.602l30.256-30.288l30.264,30.288
				c-6.833,9.813-18.34,15.288-30.264,14.4C228.086,160.866,216.592,155.396,209.747,145.602z M216.003,232.002
				c0-13.255,10.745-24,24-24s24,10.745,24,24s-10.745,24-24,24S216.003,245.256,216.003,232.002z M216.003,352.002v-48h48v48
				H216.003z M283.411,408.794c-13.958,4.838-28.635,7.276-43.408,7.208c-18.585-0.021-36.711-5.777-51.904-16.48
				c-1.242-0.945-1.621-2.649-0.896-4.032c0.551-1.109,1.681-1.812,2.92-1.816c0.229-0.001,0.457,0.026,0.68,0.08
				c16.166,3.63,32.64,5.722,49.2,6.248c12.592-0.343,24.972-3.318,36.344-8.736c4.65-2.141,10.161-0.236,12.496,4.32
				c1.227,2.403,1.347,5.222,0.328,7.72C288.141,405.885,286.038,407.889,283.411,408.794z"/>
			<path d="M120.003,350.97c10.256,12.277,22.255,22.986,35.616,31.784l8.752-13.392c-17.886-11.842-33.017-27.391-44.368-45.592
				v-167.6c17.301-28.033,43.618-49.351,74.632-60.456l-5.264-15.112c-27.065,9.61-51.031,26.352-69.368,48.456V50.834
				c29.23-18.551,62.365-30.069,96.8-33.648l-1.6-15.92c-38.737,4.035-75.908,17.449-108.296,39.08
				c-15.679,1.085-30.432,7.822-41.52,18.96l-6.08,6.08c-11.143,11.099-17.883,25.862-18.968,41.552
				c-61.281,91.776-51.95,213.538,22.6,294.904c-9.011,3.675-14.911,12.428-14.936,22.16v8c0,13.255,10.745,24,24,24h24
				c7.959-0.083,15.37-4.065,19.832-10.656c30.257,18.317,64.189,29.719,99.368,33.392l1.6-15.92
				c-34.429-3.57-67.563-15.071-96.8-33.6V350.97z M40.003,139.018v156.984c0.027,14.584,9.886,27.316,24,30.992v51.56
				C10.17,310.142,0.813,216.75,40.003,139.018z M104.003,432.738c-0.428,4.105-3.873,7.233-8,7.264h-24c-4.418,0-8-3.582-8-8v-8
				c0-4.418,3.582-8,8-8s8-3.582,8-8v-88c0-4.418-3.582-8-8-8c-8.837,0-16-7.163-16-16v-184c0-0.328,0-0.688,0-0.936
				c0.083-0.419,0.132-0.845,0.144-1.272c0.433-12.471,5.606-24.307,14.464-33.096l6.08-6.08
				c7.387-7.434,16.957-12.311,27.312-13.92V432.738z"/>
			<path d="M448.003,120.298V72.002c0-17.673-14.327-32-32-32h-43.368C340.357,18.55,303.353,5.254,264.803,1.258l-1.6,15.92
				c30.767,3.185,60.538,12.72,87.432,28c-0.104,0.064-0.2,0.152-0.304,0.224c-0.224,0.144-0.416,0.32-0.632,0.464
				c-1.33,0.935-2.585,1.973-3.752,3.104c-0.264,0.248-0.544,0.488-0.8,0.752c-1.24,1.272-2.372,2.644-3.384,4.104
				c-0.224,0.312-0.408,0.64-0.616,0.96c-0.887,1.366-1.665,2.8-2.328,4.288c-0.112,0.24-0.24,0.472-0.344,0.72
				c-0.682,1.695-1.217,3.446-1.6,5.232c-0.088,0.416-0.168,0.8-0.24,1.256c-0.384,1.884-0.595,3.798-0.632,5.72v33.648
				c-13.636-10.797-28.966-19.261-45.368-25.048l-5.264,15.112c18.887,6.732,36.14,17.375,50.632,31.232v49.056
				c0.014,14.587,9.88,27.324,24,30.984v116.8c-9.682,15.568-22.159,29.214-36.8,40.248l9.6,12.8
				c10.043-7.59,19.17-16.321,27.2-26.016v73.184c0.002,1.658,0.133,3.314,0.392,4.952c-29.331,18.675-62.606,30.269-97.192,33.864
				l1.648,15.92c36.201-3.804,71.064-15.789,101.952-35.048c10.892,13.918,31.004,16.37,44.922,5.478
				c7.74-6.058,12.268-15.337,12.278-25.166v-30.024c36.165-43.159,55.989-97.668,56-153.976
				C480.005,197.986,468.97,156.707,448.003,120.298z M416.003,192.002c-4.418,0-8,3.582-8,8v224
				c-0.087,8.836-7.32,15.929-16.157,15.842c-6.582-0.065-12.453-4.154-14.795-10.306c-0.694-1.763-1.05-3.641-1.048-5.536v-224
				c0-4.418-3.582-8-8-8c-8.837,0-16-7.163-16-16v-104c0-8.837,7.163-16,16-16v88h16v-88h16v88h16v-88c8.837,0,16,7.163,16,16v104
				C432.003,184.838,424.84,192.002,416.003,192.002z M424.003,206.994c14.114-3.676,23.973-16.408,24-30.992v-19.28
				c10.573,26.492,16.004,54.756,16,83.28c0.003,45.661-13.954,90.232-40,127.736V206.994z"/>
		</g>
	</g>
</g>
<g>
</g>
<g>
</g>
<g>
</g>
<g>
</g>
<g>
</g>
<g>
</g>
<g>
</g>
<g>
</g>
<g>
</g>
<g>
</g>
<g>
</g>
<g>
</g>
<g>
</g>
<g>
</g>
<g>
</g>
</svg>
